<?xml version="1.0" standalone="no"?>
<svg version="1.0" xmlns="http://www.w3.org/2000/svg"
 width="710.000000pt" height="146.000000pt" viewBox="0 0 710.000000 146.000000"
 preserveAspectRatio="xMidYMid meet">
<g transform="translate(0.000000,146.000000) scale(0.100000,-0.100000)"
fill="#000000" stroke="none">
<path d="M742 1358 c-61 -110 -112 -206 -112 -211 0 -3 28 -7 62 -9 48 -2 64
-7 66 -19 1 -9 -27 -57 -63 -107 -36 -50 -65 -96 -65 -102 0 -24 20 -6 65 60
27 39 52 70 57 70 4 0 8 -20 8 -44 0 -36 -8 -55 -50 -112 -27 -38 -50 -75 -50
-84 1 -16 17 1 72 71 l27 34 1 -48 c0 -41 -6 -57 -40 -104 -41 -58 -45 -96 -4
-47 13 16 23 32 24 37 0 4 5 7 10 7 6 0 10 -21 10 -46 0 -34 -7 -54 -26 -80
-30 -38 -25 -57 6 -29 20 18 20 18 20 -41 -1 -53 -7 -70 -59 -164 -32 -58 -57
-107 -55 -108 1 -2 33 19 69 47 l67 50 57 -43 c31 -23 62 -46 69 -50 14 -8
-12 46 -72 152 -29 52 -36 74 -36 120 0 55 0 55 20 37 31 -28 36 -10 8 27 -28
37 -46 112 -29 122 5 4 20 -7 32 -24 13 -16 26 -30 31 -30 17 0 6 24 -32 72
-33 42 -40 58 -40 94 0 24 4 44 8 44 4 0 25 -22 45 -50 33 -45 57 -63 57 -43
0 4 -25 39 -55 78 -46 61 -55 79 -55 114 0 22 4 41 8 41 5 0 30 -29 57 -65 46
-60 65 -77 65 -57 0 5 -29 48 -65 96 -36 48 -65 96 -65 107 0 17 7 19 65 19
36 0 65 3 65 7 0 6 -114 214 -136 246 -11 16 -15 13 -42 -35z"/>
<path d="M1566 1152 c-14 -3 -16 -44 -16 -413 l0 -409 80 0 80 0 0 166 c0 91
5 185 11 210 15 58 57 94 109 94 94 0 100 -17 100 -270 l0 -200 85 0 85 0 0
194 c0 224 -9 287 -49 336 -37 46 -73 63 -148 68 -74 5 -121 -9 -159 -48 -16
-16 -31 -30 -34 -30 -3 0 -3 67 -2 149 l4 149 -65 4 c-36 1 -72 2 -81 0z"/>
<path d="M6093 1153 c-10 -4 -13 -96 -13 -414 l0 -409 80 0 80 0 0 410 0 410
-54 0 c-30 0 -60 2 -68 4 -7 3 -19 2 -25 -1z"/>
<path d="M140 715 l0 -385 80 0 80 0 0 150 0 149 128 3 127 3 3 68 3 67 -131
0 -130 0 0 100 0 100 140 0 140 0 0 65 0 65 -220 0 -220 0 0 -385z"/>
<path d="M2560 715 l0 -385 80 0 80 0 0 150 0 149 133 3 132 3 0 65 0 65 -132
3 -133 3 0 99 0 99 143 3 142 3 3 63 3 62 -226 0 -225 0 0 -385z"/>
<path d="M4610 715 l0 -385 85 0 85 0 0 165 0 166 153 -3 152 -3 3 -162 2
-163 80 0 80 0 0 385 0 385 -80 0 -79 0 -3 -147 -3 -148 -152 -3 -153 -3 0
151 0 150 -85 0 -85 0 0 -385z"/>
<path d="M1088 916 c-83 -30 -118 -77 -118 -156 0 -81 34 -118 170 -184 119
-58 141 -84 104 -120 -22 -23 -134 -21 -204 4 -30 11 -59 19 -63 20 -4 0 -7
-30 -5 -67 l3 -67 50 -13 c62 -16 201 -17 262 -1 65 16 119 72 128 132 17 109
-27 170 -163 226 -94 38 -132 71 -116 98 16 25 94 27 164 3 32 -10 61 -16 65
-13 8 8 45 92 45 102 0 36 -248 64 -322 36z"/>
<path d="M3285 915 c-61 -23 -111 -69 -142 -133 -25 -51 -28 -68 -28 -157 0
-89 3 -106 28 -157 49 -101 132 -148 257 -148 91 0 155 24 206 77 56 57 77
122 77 233 0 130 -49 221 -148 273 -52 27 -191 34 -250 12z m174 -129 c37 -20
53 -58 59 -144 5 -82 -15 -151 -51 -177 -29 -20 -107 -19 -136 1 -35 25 -51
75 -51 159 0 84 16 134 51 159 29 20 91 21 128 2z"/>
<path d="M4072 913 c-18 -8 -46 -31 -63 -50 -34 -39 -39 -37 -54 15 l-11 37
-62 3 -62 3 0 -296 0 -295 79 0 79 0 4 173 c2 143 6 178 21 205 23 42 85 71
150 72 l47 0 0 44 c0 24 3 58 6 75 l7 31 -54 0 c-30 0 -69 -8 -87 -17z"/>
<path d="M5590 921 c-76 -23 -127 -69 -162 -146 -19 -42 -23 -67 -23 -150 0
-84 4 -109 24 -153 29 -65 84 -113 152 -135 68 -22 206 -22 276 0 l53 17 0 64
c0 47 -3 62 -12 58 -109 -45 -238 -48 -283 -6 -31 28 -40 44 -49 82 l-6 28
192 2 193 3 -3 80 c-3 97 -14 136 -55 182 -48 55 -118 83 -202 82 -38 0 -81
-4 -95 -8z m134 -111 c30 -11 66 -65 66 -97 0 -22 -3 -23 -110 -23 -122 0
-123 0 -95 66 21 51 83 76 139 54z"/>
<path d="M6650 911 c-19 -11 -44 -28 -54 -40 -26 -29 -33 -27 -40 14 l-7 35
-70 0 -69 0 2 -427 3 -428 78 -3 77 -3 0 166 0 167 30 -25 c66 -56 185 -63
257 -15 108 71 145 304 72 457 -39 83 -97 121 -183 121 -39 -1 -74 -7 -96 -19z
m99 -127 c35 -25 51 -75 51 -159 0 -121 -35 -175 -112 -175 -61 0 -97 40 -108
118 -5 38 -5 86 1 120 5 31 9 58 9 60 0 2 12 14 26 27 32 30 97 34 133 9z"/>
</g>
</svg>
